name D:\school\WTK\thesis\model\3dpredictsim\Results\MidTarsalJoint\Fal_s1_bCst_PF_Natali2010_ls150_MT_k1500_d020_MTP_T5_ig24.mot
datacolumns 128
datarows 4
range 1.11345443 1.14685806
endheader
time	pelvis_tilt	pelvis_list	pelvis_rotation	pelvis_tx	pelvis_ty	pelvis_tz	hip_flexion_l	hip_adduction_l	hip_rotation_l	hip_flexion_r	hip_adduction_r	hip_rotation_r	knee_angle_l	knee_angle_r	ankle_angle_l	ankle_angle_r	subtalar_angle_l	subtalar_angle_r	mtj_angle_l	mtj_angle_r	mtp_angle_l	mtp_angle_r	lumbar_extension	lumbar_bending	lumbar_rotation	arm_flex_l	arm_add_l	arm_rot_l	arm_flex_r	arm_add_r	arm_rot_r	elbow_flex_l	elbow_flex_r	pro_sup_l	pro_sup_r	glut_med1_l/activation	glut_med2_l/activation	glut_med3_l/activation	glut_min1_l/activation	glut_min2_l/activation	glut_min3_l/activation	semimem_l/activation	semiten_l/activation	bifemlh_l/activation	bifemsh_l/activation	sar_l/activation	add_long_l/activation	add_brev_l/activation	add_mag1_l/activation	add_mag2_l/activation	add_mag3_l/activation	tfl_l/activation	pect_l/activation	grac_l/activation	glut_max1_l/activation	glut_max2_l/activation	glut_max3_l/activation	iliacus_l/activation	psoas_l/activation	quad_fem_l/activation	gem_l/activation	peri_l/activation	rect_fem_l/activation	vas_med_l/activation	vas_int_l/activation	vas_lat_l/activation	med_gas_l/activation	lat_gas_l/activation	soleus_l/activation	tib_post_l/activation	flex_dig_l/activation	flex_hal_l/activation	tib_ant_l/activation	per_brev_l/activation	per_long_l/activation	per_tert_l/activation	ext_dig_l/activation	ext_hal_l/activation	ercspn_l/activation	intobl_l/activation	extobl_l/activation	glut_med1_r/activation	glut_med2_r/activation	glut_med3_r/activation	glut_min1_r/activation	glut_min2_r/activation	glut_min3_r/activation	semimem_r/activation	semiten_r/activation	bifemlh_r/activation	bifemsh_r/activation	sar_r/activation	add_long_r/activation	add_brev_r/activation	add_mag1_r/activation	add_mag2_r/activation	add_mag3_r/activation	tfl_r/activation	pect_r/activation	grac_r/activation	glut_max1_r/activation	glut_max2_r/activation	glut_max3_r/activation	iliacus_r/activation	psoas_r/activation	quad_fem_r/activation	gem_r/activation	peri_r/activation	rect_fem_r/activation	vas_med_r/activation	vas_int_r/activation	vas_lat_r/activation	med_gas_r/activation	lat_gas_r/activation	soleus_r/activation	tib_post_r/activation	flex_dig_r/activation	flex_hal_r/activation	tib_ant_r/activation	per_brev_r/activation	per_long_r/activation	per_tert_r/activation	ext_dig_r/activation	ext_hal_r/activation	ercspn_r/activation	intobl_r/activation	extobl_r/activation	
          1.11345443	         -2.92916122	         -2.01003035	          4.71295691	          1.39181804	          0.92074568	         -0.00170131	        -17.46780356	         -0.85365875	          6.50356518	         29.89227376	          3.24212154	         -1.97113545	         -5.09253715	        -13.01961971	          0.06113911	          6.26173249	          7.82568709	         -4.25752626	          1.23015024	         -0.00888080	         17.99034734	         -0.89602144	         -2.29258082	          0.16910276	         -1.89432169	          4.65439182	        -13.45036175	         14.83806786	         -4.41549792	        -13.47179070	          5.44381166	         33.94672134	         18.23926442	         86.51662706	         86.51662706	          0.32646799	          0.11712046	          0.08332799	          0.35635756	          0.23039421	          0.12497492	          0.05000185	          0.05000055	          0.05000044	          0.07354265	          0.11753237	          0.05000021	          0.05000017	          0.05000026	          0.05000073	          0.05000080	          0.35385189	          0.05000084	          0.05000064	          0.05088812	          0.05002648	          0.05000177	          0.43316530	          0.64185007	          0.05000049	          0.05004858	          0.06429880	          0.24984123	          0.05000069	          0.05000070	          0.05000068	          0.33466231	          0.45941735	          0.32036325	          0.29302892	          0.31482341	          0.39047749	          0.05000010	          0.05764038	          0.12725635	          0.05000049	          0.05000014	          0.05000051	          0.05000002	          0.05000003	          0.05000005	          0.06250606	          0.05003959	          0.05927678	          0.05000491	          0.05000351	          0.05015518	          0.08437275	          0.05928892	          0.22031088	          0.05000286	          0.05000118	          0.12882134	          0.17100372	          0.15561383	          0.14426752	          0.11601108	          0.05062642	          0.05058573	          0.08937309	          0.05927987	          0.09330352	          0.10424198	          0.05000020	          0.05000040	          0.15414017	          0.05000065	          0.05000257	          0.05000030	          0.05000398	          0.05003105	          0.05000211	          0.05000011	          0.05000026	          0.05000004	          0.05927855	          0.05000777	          0.05464909	          0.45497839	          0.27375848	          0.20302786	          0.08536409	          0.42793587	          0.15516147	          0.07027954	          0.12823095	          0.12034131	
          1.12458897	         -2.92989129	         -2.10490514	          5.01682322	          1.40821616	          0.91968167	         -0.00150823	        -17.41713673	         -1.15133601	          6.29530985	         29.34542662	          3.58994904	         -1.77818468	         -6.85471724	        -12.53431294	         -0.52289611	          5.90568641	          8.75482119	         -4.65703961	          1.02977551	         -0.00507158	         19.15386691	         -0.88992400	         -2.12388682	          0.37347183	         -1.96646950	          4.44731677	        -13.45697205	         15.22843831	         -5.19980491	        -13.47220627	          5.14497009	         35.12097485	         17.75736515	         86.51662706	         86.51662706	          0.27536738	          0.09878787	          0.07028488	          0.30057795	          0.19433121	          0.10541293	          0.05000166	          0.05000054	          0.05000040	          0.06203124	          0.09913568	          0.11039805	          0.05328507	          0.05001517	          0.05001474	          0.05000164	          0.29846454	          0.10790007	          0.05009059	          0.05002822	          0.05000484	          0.05000556	          0.37895000	          0.61010154	          0.05010524	          0.05000144	          0.05423438	          0.21073497	          0.05722604	          0.05282497	          0.05078681	          0.28227833	          0.38750586	          0.29804777	          0.28800657	          0.29052651	          0.38100854	          0.05000008	          0.05862237	          0.12762419	          0.05000045	          0.05000012	          0.05000044	          0.05000009	          0.05000033	          0.05000017	          0.05272234	          0.05538192	          0.05000042	          0.05927880	          0.05927868	          0.05000294	          0.08101126	          0.05000872	          0.21266407	          0.05000034	          0.05000137	          0.13117540	          0.30551797	          0.16546298	          0.14940916	          0.11557925	          0.05000028	          0.08218649	          0.07538468	          0.05000142	          0.14221238	          0.15945951	          0.05144010	          0.05000094	          0.13081948	          0.25091634	          0.13605393	          0.06124959	          0.15398841	          0.15058199	          0.13518176	          0.05000040	          0.05000056	          0.05067196	          0.05000005	          0.05000089	          0.05000041	          0.58260712	          0.27502873	          0.17124864	          0.28789193	          0.49765236	          0.24494649	          0.05927885	          0.10815924	          0.10150454	
          1.13572352	         -2.92588904	         -2.19838795	          5.29707542	          1.42496927	          0.91865543	         -0.00131017	        -17.26843035	         -1.44603529	          6.08491296	         28.69633245	          3.91727546	         -1.53476678	         -8.79928970	        -12.66383411	         -1.24521680	          5.29961852	          9.66893455	         -5.03700638	          0.78934567	         -0.00553378	         20.27647858	         -0.87464743	         -1.92858826	          0.58545910	         -2.03105957	          4.16036571	        -13.46578735	         15.55908917	         -6.02980206	        -13.47437023	          4.88003178	         36.27202726	         17.34172856	         86.51662706	         86.51662706	          0.23226482	          0.08332485	          0.05928339	          0.25352947	          0.16391305	          0.08891294	          0.05000497	          0.05000101	          0.05000111	          0.05232174	          0.08361851	          0.19277903	          0.07764342	          0.05967184	          0.05764206	          0.05927929	          0.25174676	          0.09172897	          0.05000250	          0.05000332	          0.05000335	          0.05000427	          0.31963390	          0.56371051	          0.05000073	          0.05010481	          0.05927817	          0.17774981	          0.13112451	          0.14706044	          0.14468058	          0.23809390	          0.32685041	          0.25139500	          0.24708897	          0.24505195	          0.32137130	          0.05000006	          0.05000022	          0.13610203	          0.05000020	          0.05000006	          0.05000030	          0.05787425	          0.05927918	          0.05442887	          0.05000003	          0.05000011	          0.10947674	          0.05000010	          0.05000012	          0.05000022	          0.06833089	          0.05000082	          0.17937630	          0.05000039	          0.05000163	          0.11064310	          0.25769645	          0.31591593	          0.21746963	          0.13421073	          0.05000152	          0.06932840	          0.11993894	          0.08183427	          0.12208731	          0.13449993	          0.05000016	          0.05000144	          0.36017345	          0.21164099	          0.11475777	          0.05928068	          0.15230239	          0.15625851	          0.13220117	          0.05000052	          0.05928058	          0.05000004	          0.06660655	          0.05000698	          0.05927958	          0.49141305	          0.31300032	          0.21132175	          0.24282909	          0.45467681	          0.20660565	          0.05000007	          0.09122931	          0.08561626	
          1.14685806	         -2.91810499	         -2.29401888	          5.54946697	          1.44197606	          0.91767125	         -0.00112456	        -17.04032905	         -1.73802514	          5.86580139	         27.92709937	          4.17218782	         -1.27290351	        -10.86956661	        -13.12179619	         -2.14067695	          4.81839323	         10.53522927	         -5.43524655	          0.52429925	         -0.04688126	         21.28331498	         -0.93306761	         -1.71601331	          0.80691895	         -2.08437524	          3.80910112	        -13.47282761	         15.83249899	         -6.87923894	        -13.48306071	          4.67476425	         37.39305474	         16.96894690	         86.51662706	         86.51662706	          0.33452328	          0.07028222	          0.05000395	          0.32313402	          0.13825623	          0.07499566	          0.05000245	          0.05000044	          0.05000037	          0.05000034	          0.07053029	          0.16260418	          0.07821848	          0.05033216	          0.05000225	          0.05000144	          0.21252311	          0.07877030	          0.05000286	          0.05000415	          0.05000252	          0.05000181	          0.26960244	          0.52660835	          0.05000051	          0.05000107	          0.05000037	          0.14992710	          0.11060034	          0.12404185	          0.12203444	          0.20082555	          0.27568921	          0.21204466	          0.20841279	          0.20669480	          0.27106801	          0.05000003	          0.09790382	          0.15566252	          0.05000024	          0.05000009	          0.05000025	          0.05465351	          0.05000035	          0.05000009	          0.23659842	          0.23621816	          0.29234880	          0.34665086	          0.21894364	          0.19210167	          0.07524386	          0.05000223	          0.15331416	          0.05994236	          0.05002422	          0.09332446	          0.21735991	          0.26646646	          0.18342984	          0.12164884	          0.05000088	          0.05916353	          0.10116603	          0.15227699	          0.14532640	          0.11344724	          0.05755376	          0.05000127	          0.30379639	          0.17851351	          0.22997089	          0.05000167	          0.12846300	          0.13179989	          0.11150815	          0.05000162	          0.05000219	          0.05239198	          0.05618090	          0.05000072	          0.05000142	          0.57989637	          0.34867730	          0.17824845	          0.35403584	          0.53322805	          0.20208973	          0.06477754	          0.10981733	          0.07221493	
